{
  "source": "C:\\Users\\Peter\\Desktop\\stuff\\MIUN\\quantitative_research\\video_compression\\videos\\BVI-HD\\BVI-HD_CDVL_videos\\ORIG\\Diver_1920x1080_30fps.mp4",
  "output": "C:\\Users\\Peter\\Desktop\\stuff\\MIUN\\quantitative_research\\video_compression\\compressed_videos\\BVI-HD\\vp9\\2.5\\Diver_1920x1080_30fps_vp9.webm",
  "codec": "vp9",
  "ok": "Input #0, mov,mp4,m4a,3gp,3g2,mj2, from 'C:\\Users\\Peter\\Desktop\\stuff\\MIUN\\quantitative_research\\video_compression\\videos\\BVI-HD\\BVI-HD_CDVL_videos\\ORIG\\Diver_1920x1080_30fps.mp4':\n  Metadata:\n    major_brand     : isom\n    minor_version   : 512\n    compatible_brands: isomiso2avc1mp41\n    encoder         : Lavf54.28.101\n  Duration: 00:00:05.00, start: 0.000000, bitrate: 196798 kb/s\n  Stream #0:0[0x1](und): Video: h264 (High 4:4:4 Predictive) (avc1 / 0x31637661), yuv420p(progressive), 1920x1080, 196794 kb/s, 30 fps, 30 tbr, 30 tbn (default)\n    Metadata:\n      handler_name    : VideoHandler\n      vendor_id       : [0][0][0][0]\n[out#0/webm @ 0000024ca7c79840] Codec AVOption b:a (set bitrate (in bits/s)) has not been used for any stream. The most likely reason is either wrong type (e.g. a video option with no video streams) or that it is a private option of some decoder which was not actually used for any stream.\nStream mapping:\n  Stream #0:0 -> #0:0 (h264 (native) -> vp9 (libvpx-vp9))\nPress [q] to stop, [?] for help\n[libvpx-vp9 @ 0000024ca8350b40] v1.15.2-100-g40561f514\nOutput #0, webm, to 'C:\\Users\\Peter\\Desktop\\stuff\\MIUN\\quantitative_research\\video_compression\\compressed_videos\\BVI-HD\\vp9\\2.5\\Diver_1920x1080_30fps_vp9.webm':\n  Metadata:\n    major_brand     : isom\n    minor_version   : 512\n    compatible_brands: isomiso2avc1mp41\n    encoder         : Lavf62.3.100\n  Stream #0:0(und): Video: vp9, yuv420p(tv, progressive), 1920x1080, q=2-31, 2500 kb/s, 30 fps, 1k tbn (default)\n    Metadata:\n      encoder         : Lavc62.11.100 libvpx-vp9\n      handler_name    : VideoHandler\n      vendor_id       : [0][0][0][0]\n    Side data:\n      cpb: bitrate max/min/avg: 0/0/0 buffer size: 2500000 vbv_delay: N/A\nframe=    0 fps=0.0 q=0.0 size=       0KiB time=N/A bitrate=N/A speed=N/A elapsed=0:00:00.52    \nframe=    8 fps=7.4 q=28.0 size=       1KiB time=00:00:00.26 bitrate=  19.0kbits/s speed=0.247x elapsed=0:00:01.07    \nframe=   14 fps=8.8 q=26.0 size=       1KiB time=00:00:00.43 bitrate=  11.7kbits/s speed=0.271x elapsed=0:00:01.59    \nframe=   20 fps=9.3 q=26.0 size=       1KiB time=00:00:00.66 bitrate=   7.6kbits/s speed=0.311x elapsed=0:00:02.14    \nframe=   25 fps=9.4 q=26.0 size=       1KiB time=00:00:00.83 bitrate=   6.1kbits/s speed=0.312x elapsed=0:00:02.66    \nframe=   30 fps=9.4 q=26.0 size=       1KiB time=00:00:01.00 bitrate=   5.1kbits/s speed=0.313x elapsed=0:00:03.19    \nframe=   36 fps=9.7 q=27.0 size=       1KiB time=00:00:01.20 bitrate=   4.2kbits/s speed=0.323x elapsed=0:00:03.71    \nframe=   42 fps=9.9 q=25.0 size=       1KiB time=00:00:01.40 bitrate=   3.6kbits/s speed=0.329x elapsed=0:00:04.25    \nframe=   46 fps=9.6 q=27.0 size=       1KiB time=00:00:01.53 bitrate=   3.3kbits/s speed=0.32x elapsed=0:00:04.78    \nframe=   52 fps=9.8 q=29.0 size=       1KiB time=00:00:01.73 bitrate=   2.9kbits/s speed=0.325x elapsed=0:00:05.33    \nframe=   57 fps=9.7 q=30.0 size=       1KiB time=00:00:01.90 bitrate=   2.7kbits/s speed=0.323x elapsed=0:00:05.87    \nframe=   61 fps=9.5 q=31.0 size=       1KiB time=00:00:02.03 bitrate=   2.5kbits/s speed=0.317x elapsed=0:00:06.41    \nframe=   66 fps=9.5 q=30.0 size=       1KiB time=00:00:02.20 bitrate=   2.3kbits/s speed=0.318x elapsed=0:00:06.91    \nframe=   72 fps=9.7 q=30.0 size=       1KiB time=00:00:02.36 bitrate=   2.1kbits/s speed=0.318x elapsed=0:00:07.44    \nframe=   76 fps=9.5 q=31.0 size=       1KiB time=00:00:02.53 bitrate=   2.0kbits/s speed=0.318x elapsed=0:00:07.97    \nframe=   82 fps=9.6 q=32.0 size=       1KiB time=00:00:02.73 bitrate=   1.9kbits/s speed=0.322x elapsed=0:00:08.50    \nframe=   87 fps=9.6 q=31.0 size=       1KiB time=00:00:02.90 bitrate=   1.7kbits/s speed=0.321x elapsed=0:00:09.03    \nframe=   92 fps=9.6 q=31.0 size=       1KiB time=00:00:03.06 bitrate=   1.7kbits/s speed=0.321x elapsed=0:00:09.55    \nframe=   97 fps=9.6 q=31.0 size=       1KiB time=00:00:03.23 bitrate=   1.6kbits/s speed=0.321x elapsed=0:00:10.07    \nframe=  103 fps=9.7 q=31.0 size=       1KiB time=00:00:03.43 bitrate=   1.5kbits/s speed=0.324x elapsed=0:00:10.59    \nframe=  108 fps=9.7 q=33.0 size=       1KiB time=00:00:03.60 bitrate=   1.4kbits/s speed=0.324x elapsed=0:00:11.10    \nframe=  113 fps=9.7 q=22.0 size=       1KiB time=00:00:03.76 bitrate=   1.3kbits/s speed=0.324x elapsed=0:00:11.63    \nframe=  118 fps=9.7 q=39.0 size=       1KiB time=00:00:03.93 bitrate=   1.3kbits/s speed=0.324x elapsed=0:00:12.15    \nframe=  123 fps=9.7 q=40.0 size=       1KiB time=00:00:04.10 bitrate=   1.2kbits/s speed=0.323x elapsed=0:00:12.67    \nframe=  126 fps=9.5 q=40.0 size=       1KiB time=00:00:04.20 bitrate=   1.2kbits/s speed=0.318x elapsed=0:00:13.20    \nframe=  126 fps=9.2 q=40.0 size=       1KiB time=00:00:04.20 bitrate=   1.2kbits/s speed=0.306x elapsed=0:00:13.71    \nframe=  126 fps=8.9 q=40.0 size=       1KiB time=00:00:04.20 bitrate=   1.2kbits/s speed=0.295x elapsed=0:00:14.23    \nframe=  126 fps=8.5 q=40.0 size=       1KiB time=00:00:04.20 bitrate=   1.2kbits/s speed=0.285x elapsed=0:00:14.74    \n[out#0/webm @ 0000024ca7c79840] video:1263KiB audio:0KiB subtitle:0KiB other streams:0KiB global headers:0KiB muxing overhead: 0.136707%\nframe=  150 fps=9.9 q=39.0 Lsize=    1265KiB time=00:00:05.00 bitrate=2072.1kbits/s speed=0.332x elapsed=0:00:15.07    \n",
  "seconds": 15.321454286575317,
  "probe_out": {}
}